<svg viewBox="-0.5 -0.5 16 16" fill="none" xmlns="http://www.w3.org/2000/svg" id="Check-Circle--Streamline-Unicons-Thinline.svg" height="16" width="16"><desc>Check Circle Streamline Icon: https://streamlinehq.com</desc><path d="M9.8803125 5.40405 6.351312500000001 8.933125l-1.5441812499999998 -1.543625c-0.0014875 -0.0014375 -0.002975 -0.0029375 -0.00450625 -0.0044375000000000005 -0.12325 -0.12075000000000001 -0.32108125 -0.11881249999999999 -0.44185625 0.0044375000000000005 -0.12080624999999999 0.1233125 -0.1187875 0.321125 0.0044687500000000005 0.4419375l1.76513125 1.7645c0.05851875 0.0586875 0.13806875 0.0916875 0.22094375 0.09156249999999999 0.082875 0.0000625 0.162375 -0.032875 0.22093749999999998 -0.09156249999999999l3.75 -3.7499875c0.0014375 -0.0014875 0.0029375 -0.0029375 0.0044375000000000005 -0.0044687500000000005 0.12075000000000001 -0.12325 0.11881249999999999 -0.32108125 -0.0044375000000000005 -0.44185625 -0.12325 -0.12080624999999999 -0.321125 -0.1187875 -0.4419375 0.004425ZM7.5 1.25C4.04823125 1.25 1.25 4.04823125 1.25 7.5c0 3.45175 2.79823125 6.25 6.25 6.25 3.4500625 -0.0040625 6.245937499999999 -2.7999375 6.25 -6.25 0 -3.45176875 -2.79825 -6.25 -6.25 -6.25Zm0 11.875c-3.1066124999999998 0 -5.625 -2.518375 -5.625 -5.625 0 -3.1066124999999998 2.5183875000000002 -5.625 5.625 -5.625 3.1051875 0.00339375 5.621625 2.5198 5.625 5.625 0 3.106625 -2.518375 5.625 -5.625 5.625Z" fill="#000000" stroke-width="1"></path></svg>