<svg viewBox="-0.5 -0.5 16 16" fill="none" xmlns="http://www.w3.org/2000/svg" id="Circuit--Streamline-Unicons-Thinline.svg" height="16" width="16"><desc>Circuit Streamline Icon: https://streamlinehq.com</desc><path d="M6.25 7.8125c-0.51776875 0 -0.9375 0.41974999999999996 -0.9375 0.9375s0.41973125 0.9375 0.9375 0.9375c0.5175624999999999 -0.0005625 0.9369375000000001 -0.4199375 0.9375 -0.9375 0 -0.51775 -0.41974999999999996 -0.9375 -0.9375 -0.9375Zm0 1.25c-0.17257499999999998 0 -0.3125 -0.1399375 -0.3125 -0.3125s0.139925 -0.3125 0.3125 -0.3125c0.1724375 0.0003125 0.3121875 0.1400625 0.3125 0.3125 0 0.1725625 -0.1399375 0.3125 -0.3125 0.3125Zm0 -3.75c-0.51776875 0 -0.9375 0.41973125 -0.9375 0.9375 0 0.51775 0.41973125 0.9375 0.9375 0.9375 0.5175624999999999 -0.0005625 0.9369375000000001 -0.4199375 0.9375 -0.9375 0 -0.51776875 -0.41974999999999996 -0.9375 -0.9375 -0.9375Zm0 1.25c-0.17257499999999998 0 -0.3125 -0.1399375 -0.3125 -0.3125 0 -0.17257499999999998 0.139925 -0.3125 0.3125 -0.3125 0.1724375 0.00034375000000000003 0.3121875 0.1400375 0.3125 0.3125 0 0.1725625 -0.1399375 0.3125 -0.3125 0.3125Zm7.1875 1.25c0.1725625 0 0.3125 -0.1399375 0.3125 -0.3125s-0.1399375 -0.3125 -0.3125 -0.3125H11.875v-1.875h1.5625c0.1725625 0 0.3125 -0.139925 0.3125 -0.3125 0 -0.17257499999999998 -0.1399375 -0.3125 -0.3125 -0.3125H11.875c-0.0008125 -0.86261875 -0.6998749999999999 -1.5617 -1.5625 -1.5625V1.5625c0 -0.17257499999999998 -0.1399375 -0.3125 -0.3125 -0.3125s-0.3125 0.139925 -0.3125 0.3125V3.125h-1.875V1.5625c0 -0.17257499999999998 -0.1399375 -0.3125 -0.3125 -0.3125s-0.3125 0.139925 -0.3125 0.3125V3.125h-1.875V1.5625c0 -0.17257499999999998 -0.139925 -0.3125 -0.3125 -0.3125 -0.17257499999999998 0 -0.3125 0.139925 -0.3125 0.3125V3.125C3.8248812500000002 3.1258000000000004 3.1258000000000004 3.8248812500000002 3.125 4.6875H1.5625c-0.17257499999999998 0 -0.3125 0.139925 -0.3125 0.3125 0 0.17257499999999998 0.139925 0.3125 0.3125 0.3125H3.125v1.875H1.5625c-0.17257499999999998 0 -0.3125 0.1399375 -0.3125 0.3125s0.139925 0.3125 0.3125 0.3125H3.125v1.875H1.5625c-0.17257499999999998 0 -0.3125 0.1399375 -0.3125 0.3125s0.139925 0.3125 0.3125 0.3125H3.125c0.0008 0.8626250000000001 0.69988125 1.5616875 1.5625 1.5625v1.5628125000000002c0.00011250000000000001 0.1725625 0.14 0.3123125 0.3125 0.3121875 0.17246250000000002 -0.000125 0.31261249999999996 -0.14 0.3125 -0.3125V11.875h1.875v1.5628125000000002c0.000125 0.1725625 0.14 0.3123125 0.3125 0.3121875 0.1724375 -0.000125 0.312625 -0.14 0.3125 -0.3125V11.875h1.875v1.5628125000000002c0.000125 0.1725625 0.14 0.3123125 0.3125 0.3121875 0.1724375 -0.000125 0.312625 -0.14 0.3125 -0.3125V11.875c0.8626250000000001 -0.0008125 1.5616875 -0.6998749999999999 1.5625 -1.5625h1.5625c0.1725625 0 0.3125 -0.1399375 0.3125 -0.3125s-0.1399375 -0.3125 -0.3125 -0.3125H11.875v-1.875h1.5625Zm-2.1875 2.5c-0.0005625 0.5175624999999999 -0.4199375 0.9369375000000001 -0.9375 0.9375h-5.625c-0.5175375 -0.0005625 -0.936925 -0.4199375 -0.9375 -0.9375v-5.625c0.000575 -0.5175375 0.4199625 -0.936925 0.9375 -0.9375h5.625c0.5175624999999999 0.000575 0.9369375000000001 0.4199625 0.9375 0.9375v5.625Zm-2.5 -5c-0.51775 0 -0.9375 0.41973125 -0.9375 0.9375 0 0.51775 0.41974999999999996 0.9375 0.9375 0.9375 0.5175624999999999 -0.0005625 0.9369375000000001 -0.4199375 0.9375 -0.9375 0 -0.51776875 -0.41974999999999996 -0.9375 -0.9375 -0.9375Zm0 1.25c-0.1725625 0 -0.3125 -0.1399375 -0.3125 -0.3125 0 -0.17257499999999998 0.1399375 -0.3125 0.3125 -0.3125 0.1724375 0.00034375000000000003 0.3121875 0.1400375 0.3125 0.3125 0 0.1725625 -0.1399375 0.3125 -0.3125 0.3125Zm0 1.25c-0.51775 0 -0.9375 0.41974999999999996 -0.9375 0.9375s0.41974999999999996 0.9375 0.9375 0.9375c0.5175624999999999 -0.0005625 0.9369375000000001 -0.4199375 0.9375 -0.9375 0 -0.51775 -0.41974999999999996 -0.9375 -0.9375 -0.9375Zm0 1.25c-0.1725625 0 -0.3125 -0.1399375 -0.3125 -0.3125s0.1399375 -0.3125 0.3125 -0.3125c0.1724375 0.0003125 0.3121875 0.1400625 0.3125 0.3125 0 0.1725625 -0.1399375 0.3125 -0.3125 0.3125Z" fill="#000000" stroke-width="1"></path></svg>