<svg version="1.1" id="Result-Draft--Streamline-Carbon.svg" xmlns="http://www.w3.org/2000/svg" xmlns:xlink="http://www.w3.org/1999/xlink" x="0" y="0" viewBox="-0.5 -0.5 16 16" xml:space="preserve" enable-background="new 0 0 32 32" height="16" width="16"><desc>Result Draft Streamline Icon: https://streamlinehq.com</desc><path d="m13.921875 9.046875 -1.40625 -1.40625c-0.1875 -0.1875 -0.46875 -0.1875 -0.65625 0L7.5 12V14.0625h2.0625l4.359375 -4.359375c0.1875 -0.1875 0.1875 -0.46875 0 -0.65625zM9.1875 13.125H8.4375v-0.75l2.34375 -2.34375 0.75 0.75 -2.34375 2.34375zm3 -3L11.4375 9.375l0.75 -0.75 0.75 0.75 -0.75 0.75z" fill="#000000" stroke-width="1"></path><path d="M4.6875 10.78125h0.9375v0.9375h-0.9375Z" fill="#000000" stroke-width="1"></path><path d="M6.5625 8.4375h1.875v0.9375h-1.875Z" fill="#000000" stroke-width="1"></path><path d="M4.6875 8.4375h0.9375v0.9375h-0.9375Z" fill="#000000" stroke-width="1"></path><path d="M6.5625 6.09375h3.75v0.9375h-3.75Z" fill="#000000" stroke-width="1"></path><path d="M4.6875 6.09375h0.9375v0.9375h-0.9375Z" fill="#000000" stroke-width="1"></path><path d="M3.28125 13.125V3.28125h1.40625v1.40625h5.625V3.28125h1.40625v2.8125h0.9375V3.28125c0 -0.515625 -0.421875 -0.9375 -0.9375 -0.9375h-1.40625V1.875c0 -0.515625 -0.421875 -0.9375 -0.9375 -0.9375h-3.75c-0.515625 0 -0.9375 0.421875 -0.9375 0.9375v0.46875H3.28125c-0.515625 0 -0.9375 0.421875 -0.9375 0.9375v9.84375c0 0.515625 0.421875 0.9375 0.9375 0.9375h2.34375v-0.9375H3.28125zm2.34375 -11.25h3.75v1.875h-3.75V1.875z" fill="#000000" stroke-width="1"></path><path id="_x3C_Transparent_Rectangle_x3E__155_" d="M0 0h15v15H0Z" fill="none" stroke-width="1"></path></svg>